<svg width="247" height="248" viewBox="0 0 247 248" fill="none" xmlns="http://www.w3.org/2000/svg"><path d="M57.233 67.29l-9.756-5.103.89-.957 7.846 4.263.07-.076-4.795-7.545.988-1.063 7.875 4.233.07-.076-4.824-7.515.89-.957 5.801 9.358-.903.972-7.795-4.045-.056.06 4.602 7.48-.904.972zm8.237-8.595l-6.689-8.25 1-.81 2.978 3.674 4.398-3.566-2.978-3.674.999-.81 6.688 8.25-.999.81-2.991-3.69-4.399 3.566 2.992 3.69-1 .81zm8.477-6.683l-5.694-8.965 5.41-3.436.612.963-4.325 2.747 1.924 3.029 4.045-2.569.611.963-4.044 2.569 1.935 3.047 4.395-2.792.611.963-5.48 3.481zm7.429-4.56l-4.736-9.506 3.212-1.6c.742-.37 1.415-.547 2.018-.531.601.013 1.126.182 1.574.508.448.325.811.767 1.09 1.328.28.56.412 1.113.4 1.66-.014.548-.196 1.063-.546 1.547-.351.48-.895.904-1.632 1.27l-2.599 1.296-.518-1.04 2.562-1.277c.508-.252.879-.53 1.114-.833.239-.304.36-.627.364-.969.005-.346-.088-.71-.277-1.09-.19-.38-.427-.678-.711-.892a1.626 1.626 0 00-1.01-.319c-.392-.002-.844.125-1.358.381L78.3 38.393l4.227 8.485-1.151.573zm2.347-6.5l4.466 3.104-1.336.666-4.43-3.123 1.3-.647zm6.061 2.458l-3.726-9.944 6.001-2.25.4 1.069-4.797 1.798 1.26 3.36 4.486-1.682.4 1.069-4.486 1.681 1.266 3.38 4.876-1.827.4 1.068-6.08 2.278zm12.162-4.03l-2.11-10.41 1.261-.255.939 4.635 5.55-1.125-.94-4.635 1.261-.255 2.109 10.408-1.26.256-.944-4.656-5.549 1.125.943 4.656-1.26.255zm10.646-12.738l1.234 10.548-1.277.15-1.234-10.549 1.277-.149zm9.281 2.152a1.626 1.626 0 00-.806-1.192c-.454-.273-1.002-.396-1.644-.37-.47.02-.878.112-1.224.279a1.967 1.967 0 00-.793.66 1.5 1.5 0 00-.254.918 1.3 1.3 0 00.232.723c.146.194.329.355.549.48.219.123.448.223.687.3.238.073.457.132.656.176l1.089.246c.279.061.591.149.935.263.347.114.68.275 1 .483.323.205.594.475.811.808.218.334.337.75.357 1.247a2.795 2.795 0 01-.387 1.573c-.279.475-.699.86-1.261 1.156-.559.296-1.246.46-2.061.494-.76.03-1.423-.065-1.989-.288-.563-.222-1.012-.547-1.348-.972a2.93 2.93 0 01-.595-1.507l1.326-.054c.051.4.199.725.445.978.248.25.557.43.925.544.371.11.767.156 1.189.138.49-.02.927-.117 1.311-.292a2.27 2.27 0 00.9-.71 1.6 1.6 0 00.301-1.03c-.014-.353-.125-.635-.33-.848a2.176 2.176 0 00-.799-.508 8.166 8.166 0 00-1.057-.32l-1.32-.32c-.839-.205-1.509-.518-2.011-.94-.501-.423-.767-.992-.796-1.707-.024-.594.116-1.119.419-1.574a3.205 3.205 0 011.264-1.09 4.419 4.419 0 011.824-.447c.684-.028 1.297.07 1.839.294.541.22.976.534 1.304.943.332.409.517.88.556 1.415l-1.244.05zm3.853-1.545l.074-1.139 7.948.517-.074 1.139-3.332-.217-.616 9.46-1.283-.084.615-9.46-3.332-.216zm18.622 6.624c-.202 1.102-.577 2.017-1.122 2.746-.545.73-1.205 1.248-1.979 1.556-.773.307-1.606.379-2.496.215-.891-.164-1.643-.527-2.257-1.09-.613-.563-1.045-1.282-1.295-2.158-.25-.875-.274-1.864-.071-2.965.202-1.102.576-2.017 1.122-2.747.545-.729 1.205-1.247 1.978-1.555.774-.307 1.606-.38 2.497-.215.891.164 1.643.527 2.257 1.09.613.563 1.045 1.282 1.295 2.157.25.876.274 1.865.071 2.966zm-1.224-.225c.167-.904.156-1.696-.032-2.373-.185-.678-.505-1.223-.959-1.637a3.213 3.213 0 00-1.626-.795 3.241 3.241 0 00-1.807.163c-.568.226-1.061.622-1.478 1.189-.414.567-.704 1.302-.871 2.207-.166.904-.157 1.695.028 2.372.188.678.508 1.224.959 1.637.454.414.998.68 1.63.796a3.215 3.215 0 001.802-.164c.572-.225 1.065-.621 1.479-1.189.417-.566.709-1.302.875-2.206zm2.346 5.98l3.109-10.154 3.431 1.05c.793.243 1.403.578 1.829 1.005.427.424.691.908.792 1.452.101.544.06 1.116-.123 1.714-.184.598-.468 1.091-.855 1.48-.386.387-.873.636-1.459.746-.586.106-1.272.039-2.059-.202l-2.777-.85.34-1.111 2.737.838c.543.166 1.003.22 1.382.163.383-.057.693-.208.931-.453.242-.248.425-.575.55-.981.124-.407.157-.786.098-1.136-.059-.35-.23-.66-.513-.928-.283-.27-.698-.49-1.247-.658l-2.162-.662-2.775 9.064-1.229-.376zm6.176-3.097l1.103 5.326-1.428-.437-1.063-5.315 1.388.426zm5.684-4.275l1.355.578.767 5.715.115.048 4.652-3.406 1.355.577-5.977 4.24-1.715 4.027-1.183-.504 1.715-4.027-1.084-7.248zm20.276 14.482l-1.083-.693a2.683 2.683 0 00-.008-2 2.9 2.9 0 00-.513-.844 3.53 3.53 0 00-.778-.67 3.237 3.237 0 00-1.735-.53c-.611-.006-1.217.175-1.817.542-.598.37-1.144.941-1.639 1.716-.495.775-.785 1.51-.87 2.208-.081.698.009 1.324.271 1.877a3.238 3.238 0 001.209 1.352c.297.19.609.332.935.426.326.093.652.131.979.115a2.731 2.731 0 001.821-.836l1.083.692c-.374.405-.784.72-1.23.943-.447.223-.911.36-1.394.408a4.18 4.18 0 01-1.445-.118 4.778 4.778 0 01-1.397-.616c-.763-.488-1.322-1.108-1.678-1.86-.356-.754-.485-1.583-.386-2.488.099-.905.45-1.83 1.053-2.773.604-.944 1.296-1.65 2.076-2.12.78-.47 1.586-.7 2.419-.694.833.007 1.63.255 2.393.743.452.288.834.625 1.146 1.01.315.386.552.808.71 1.266.161.455.233.933.218 1.431-.014.496-.127 1-.34 1.513zm8.009 9.01c-.714.864-1.486 1.48-2.318 1.852-.832.371-1.66.502-2.486.394-.825-.108-1.587-.451-2.285-1.028-.698-.577-1.178-1.261-1.439-2.051-.262-.79-.289-1.63-.081-2.516.208-.886.669-1.761 1.383-2.624.714-.864 1.486-1.48 2.318-1.852.832-.371 1.66-.502 2.486-.394.825.108 1.587.451 2.285 1.028.698.577 1.178 1.261 1.439 2.051.262.79.289 1.63.081 2.516-.208.886-.669 1.761-1.383 2.624zm-.959-.792c.586-.71.962-1.405 1.128-2.089.168-.681.155-1.314-.04-1.897a3.216 3.216 0 00-1.033-1.486 3.238 3.238 0 00-1.657-.738c-.607-.08-1.23.026-1.87.318-.638.294-1.25.795-1.836 1.504-.586.708-.963 1.403-1.132 2.085-.166.683-.152 1.316.04 1.897a3.245 3.245 0 001.037 1.489c.495.41 1.046.654 1.653.734.609.082 1.233-.023 1.87-.317.641-.292 1.254-.792 1.84-1.5zm12.632 5.31l-7.775 7.234-.848-.91 2.162-9.918-.07-.075-6.105 5.68-.876-.942 7.775-7.234.848.91-2.163 9.947.07.076 6.12-5.695.862.927zm7.387 9.85l-8.622 6.201-.726-1.01 3.389-9.567-.06-.084-6.769 4.869-.751-1.044 8.621-6.202.727 1.01-3.395 9.597.061.084 6.786-4.882.739 1.028zm-7.249 8.362l9.274-5.176 3.124 5.597-.997.556-2.496-4.474-3.134 1.749 2.335 4.184-.996.556-2.335-4.184-3.152 1.759 2.537 4.546-.996.556-3.164-5.67zm14.163 12.732l-.498-1.186a2.686 2.686 0 001.129-1.65c.076-.32.095-.649.059-.986a3.54 3.54 0 00-.26-.993 3.238 3.238 0 00-1.126-1.423c-.5-.352-1.102-.548-1.804-.587-.701-.035-1.476.125-2.324.481-.848.356-1.504.797-1.97 1.322-.464.529-.745 1.095-.844 1.7a3.235 3.235 0 00.227 1.8c.136.324.312.618.527.88.215.262.462.48.74.65a2.725 2.725 0 001.974.347l.498 1.186a4.287 4.287 0 01-1.549.077 3.986 3.986 0 01-1.378-.456 4.185 4.185 0 01-1.122-.918 4.773 4.773 0 01-.799-1.301c-.351-.835-.459-1.664-.324-2.485.135-.822.5-1.577 1.096-2.266.596-.689 1.41-1.25 2.443-1.683 1.032-.434 2.003-.622 2.912-.565.909.057 1.704.325 2.385.804.681.479 1.197 1.136 1.547 1.97.208.495.331.989.369 1.483.04.496-.005.978-.135 1.445-.127.466-.338.9-.635 1.302a4.23 4.23 0 01-1.138 1.052zm2.867 1.562l1.094-.321 2.239 7.644-1.094.321-.939-3.205-9.097 2.664-.362-1.234 9.097-2.665-.938-3.204zm2.435 16.54a1.632 1.632 0 001.07-.963c.207-.487.253-1.047.139-1.68-.083-.462-.231-.854-.444-1.174a1.963 1.963 0 00-.763-.694 1.498 1.498 0 00-.944-.125c-.279.05-.507.16-.684.329a1.799 1.799 0 00-.401.61 3.767 3.767 0 00-.202.721c-.04.246-.068.471-.084.674l-.094 1.113a9.234 9.234 0 01-.132.962 4.273 4.273 0 01-.341 1.057 2.669 2.669 0 01-.689.915c-.3.261-.696.436-1.186.525a2.793 2.793 0 01-1.611-.168c-.508-.21-.948-.573-1.319-1.09-.37-.512-.627-1.17-.772-1.973-.135-.749-.131-1.419.011-2.01.144-.588.403-1.077.779-1.468a2.925 2.925 0 011.41-.798l.236 1.307c-.389.105-.691.297-.908.575-.213.281-.35.611-.411.991a3.63 3.63 0 00.026 1.196c.087.484.244.903.47 1.259.229.356.505.621.828.794.326.173.68.225 1.061.156.347-.062.612-.21.794-.443.183-.234.314-.521.393-.862.079-.341.136-.704.172-1.09l.135-1.352c.088-.859.306-1.566.656-2.121.349-.555.876-.896 1.58-1.023.586-.105 1.124-.039 1.617.199.497.24.914.607 1.253 1.101a4.42 4.42 0 01.694 1.746c.122.673.109 1.294-.038 1.861-.144.567-.395 1.041-.755 1.422a2.475 2.475 0 01-1.325.745l-.221-1.224zm-7.009 8.964l10.617-.252.085 3.588c.02.833-.114 1.517-.402 2.053a2.822 2.822 0 01-1.18 1.21 3.716 3.716 0 01-1.691.424 3.753 3.753 0 01-1.715-.343 2.846 2.846 0 01-1.251-1.142c-.314-.522-.48-1.196-.5-2.022l-.061-2.571 1.141-.027.06 2.53c.013.57.123 1.026.328 1.367.205.34.477.585.816.732.343.151.726.222 1.152.212a2.638 2.638 0 001.134-.266c.332-.163.589-.422.77-.776.186-.353.271-.819.258-1.396l-.054-2.26-9.476.225-.031-1.286zm.083 9.258l10.584.876-.528 6.387-1.137-.094.422-5.106-3.576-.295-.395 4.775-1.137-.094.395-4.776-3.597-.297-.429 5.189-1.137-.095.535-6.47zm2.582 18.503c-1.099-.22-2.008-.609-2.729-1.165-.72-.557-1.228-1.225-1.524-2.003-.295-.779-.354-1.612-.176-2.5.178-.888.553-1.634 1.125-2.239.573-.605 1.299-1.025 2.178-1.262.88-.236 1.868-.244 2.967-.024 1.098.22 2.007.608 2.728 1.165.72.557 1.228 1.224 1.524 2.003.295.778.354 1.611.176 2.499-.178.889-.553 1.635-1.125 2.24-.573.604-1.298 1.025-2.178 1.261-.879.236-1.868.245-2.966.025zm.244-1.221c.902.181 1.693.183 2.374.005.68-.174 1.23-.485 1.651-.933.421-.445.694-.982.821-1.613a3.243 3.243 0 00-.135-1.809c-.217-.572-.605-1.071-1.165-1.497-.561-.423-1.292-.724-2.194-.905-.901-.181-1.692-.184-2.372-.01-.681.178-1.232.489-1.652.933a3.241 3.241 0 00-.821 1.618 3.204 3.204 0 00.136 1.804c.216.576.604 1.075 1.165 1.498.56.426 1.29.729 2.192.909zm-6.017 2.253l10.107 3.262-1.102 3.415c-.256.793-.608 1.395-1.057 1.806a2.822 2.822 0 01-1.513.754 3.734 3.734 0 01-1.736-.157 3.76 3.76 0 01-1.506-.889 2.86 2.86 0 01-.805-1.492c-.123-.595-.058-1.286.195-2.073l.79-2.447 1.086.35-.777 2.408c-.175.543-.222 1.009-.141 1.399.081.389.258.71.529.961.274.255.613.448 1.017.579.405.13.791.171 1.159.123.367-.045.695-.205.983-.478.291-.273.526-.684.703-1.234l.695-2.151-9.022-2.912.395-1.224zm-2.968 8.77l9.722 4.275-.517 1.177-8.678-3.815-1.987 4.519-1.044-.459 2.504-5.697zm-3.415 7.462l9.268 5.185-3.129 5.594-.996-.557 2.502-4.471-3.132-1.752-2.339 4.181-.996-.557 2.34-4.181-3.15-1.763-2.542 4.544-.996-.557 3.17-5.666zm-4.045 9.749l-.421-.378a11.24 11.24 0 01-.907-.923c-.31-.346-.596-.682-.857-1.008a39.958 39.958 0 01-.617-.787l.515-.779.634.631c.263.26.561.545.896.853.33.31.677.613 1.039.911l.45.372-.732 1.108zm2.382 12.14l-8.266-6.668.808-1.001 8.266 6.668-.808 1.001zm-8.126 8.695l-7.668-7.348.861-.899 10.025 1.592.071-.075-6.02-5.77.89-.928 7.667 7.348-.861.899-10.053-1.591-.072.075 6.035 5.784-.875.913zm-8.942 4.234c.383.365.838.519 1.364.461.526-.059 1.036-.293 1.532-.703.362-.299.631-.62.805-.962.173-.34.25-.675.232-1.006a1.507 1.507 0 00-.355-.884 1.3 1.3 0 00-.622-.435 1.795 1.795 0 00-.728-.05 3.793 3.793 0 00-.728.178 8.685 8.685 0 00-.628.257l-1.016.464a9.32 9.32 0 01-.903.356c-.345.12-.708.194-1.089.222a2.675 2.675 0 01-1.135-.152c-.375-.134-.721-.392-1.039-.776a2.795 2.795 0 01-.644-1.486c-.066-.547.035-1.108.303-1.684.266-.574.713-1.121 1.341-1.641.586-.485 1.172-.81 1.757-.976.583-.163 1.137-.177 1.662-.042.522.138.984.418 1.386.839l-1.023.846c-.282-.287-.597-.457-.946-.509a2.183 2.183 0 00-1.065.127 3.653 3.653 0 00-1.03.61 3.457 3.457 0 00-.867 1.027 2.263 2.263 0 00-.286 1.111c.01.369.138.703.384 1.001.225.272.484.43.777.475.293.045.607.018.943-.08a8.225 8.225 0 001.034-.385l1.245-.545c.792-.345 1.515-.502 2.17-.469.655.032 1.21.324 1.666.876.379.458.586.96.62 1.506a3.208 3.208 0 01-.345 1.632c-.265.542-.659 1.029-1.181 1.461-.527.436-1.074.729-1.641.88-.565.152-1.101.166-1.61.039a2.485 2.485 0 01-1.299-.79l.959-.793zm-7.854-4.018l5.855 8.86-2.994 1.978c-.695.46-1.346.71-1.953.75a2.821 2.821 0 01-1.653-.356 3.734 3.734 0 01-1.258-1.207 3.764 3.764 0 01-.62-1.635 2.844 2.844 0 01.303-1.667c.276-.543.758-1.042 1.447-1.497l2.146-1.418.629.951-2.111 1.396c-.476.314-.804.649-.984 1.004a1.769 1.769 0 00-.187 1.081c.054.37.199.732.433 1.087.234.355.51.628.828.82.315.194.67.275 1.066.241.398-.031.838-.206 1.32-.524l1.886-1.247-5.226-7.908 1.073-.709zm-3.77 14.937l-5.137-9.295 1.125-.622 5.138 9.295-1.126.622zm-7.436-8.132l4.444 9.646-3.259 1.502c-.754.347-1.432.503-2.034.468-.6-.031-1.12-.216-1.557-.555-.438-.339-.788-.793-1.05-1.361s-.378-1.126-.348-1.672c.03-.547.227-1.057.592-1.529.366-.469.923-.876 1.67-1.221l2.638-1.215.486 1.055-2.6 1.198c-.515.237-.895.504-1.139.799-.248.297-.379.616-.393.957-.016.346.065.712.243 1.099.178.386.406.69.684.912.277.223.611.339 1 .35.391.014.847-.099 1.368-.339l2.054-.946-3.967-8.609 1.168-.539zm-2.544 6.425l-4.37-3.239 1.357-.625 4.332 3.257-1.319.607zm-5.984-2.643l3.416 10.056-6.069 2.061-.367-1.08 4.851-1.648-1.154-3.397-4.537 1.541-.367-1.081 4.537-1.541-1.161-3.417-4.93 1.674-.367-1.08 6.148-2.088zm-12.167 11.746c.178.498.516.839 1.012 1.023.497.184 1.058.203 1.685.059.458-.106.842-.272 1.151-.499a1.98 1.98 0 00.658-.796c.129-.303.155-.619.079-.949a1.294 1.294 0 00-.361-.667 1.78 1.78 0 00-.629-.372 3.805 3.805 0 00-.73-.167 8.729 8.729 0 00-.677-.052l-1.116-.04a9.675 9.675 0 01-.967-.086 4.268 4.268 0 01-1.073-.291 2.652 2.652 0 01-.946-.644c-.276-.287-.47-.674-.581-1.159a2.794 2.794 0 01.09-1.617c.186-.518.528-.975 1.026-1.37.494-.394 1.139-.683 1.934-.866.741-.171 1.411-.199 2.008-.085.594.116 1.095.351 1.504.708.405.357.693.814.864 1.371l-1.294.297c-.124-.383-.329-.676-.618-.879a2.186 2.186 0 00-1.009-.363 3.644 3.644 0 00-1.194.083c-.479.11-.89.287-1.235.529a2.263 2.263 0 00-.753.866c-.158.334-.193.69-.106 1.067.079.343.24.601.481.772.242.172.535.289.879.351a8.09 8.09 0 001.098.12l1.357.071c.862.046 1.578.23 2.149.553.571.322.937.832 1.098 1.53.133.579.093 1.121-.121 1.624a3.206 3.206 0 01-1.041 1.304c-.479.366-1.049.625-1.71.777-.667.154-1.287.171-1.861.051-.573-.116-1.059-.345-1.457-.686a2.483 2.483 0 01-.807-1.288l1.213-.28zm-17.371 1.23l1.283-.08a2.68 2.68 0 001.186 1.611c.277.176.581.303.912.38.33.076.671.104 1.023.082a3.246 3.246 0 001.714-.594c.498-.356.881-.86 1.149-1.51.264-.65.368-1.434.312-2.352-.057-.918-.257-1.683-.599-2.296-.346-.612-.788-1.065-1.326-1.357a3.228 3.228 0 00-1.774-.379 3.566 3.566 0 00-1.005.207 2.96 2.96 0 00-.859.485 2.72 2.72 0 00-.978 1.748l-1.283.08a4.273 4.273 0 01.438-1.487 3.972 3.972 0 012.121-1.908c.46-.184.957-.293 1.492-.326.904-.056 1.722.115 2.453.514.731.398 1.324.992 1.778 1.781.453.79.715 1.743.784 2.861.069 1.118-.073 2.097-.427 2.936-.353.839-.868 1.501-1.545 1.986-.677.486-1.467.756-2.371.812a4.786 4.786 0 01-1.521-.14 4.112 4.112 0 01-1.32-.605 3.893 3.893 0 01-1.019-1.028 4.21 4.21 0 01-.618-1.421zm-10.11 2.866l-1.284-.077.422-7.019c.044-.725.253-1.361.629-1.91a3.592 3.592 0 011.515-1.255c.637-.287 1.371-.406 2.203-.356.831.05 1.546.256 2.145.618.598.364 1.05.84 1.358 1.427.304.589.434 1.247.391 1.971l-.422 7.019-1.284-.077.416-6.915a2.765 2.765 0 00-.259-1.403 2.46 2.46 0 00-.916-1.006c-.411-.253-.911-.397-1.501-.433-.59-.035-1.105.048-1.543.25a2.417 2.417 0 00-1.03.889c-.252.39-.393.844-.424 1.362l-.416 6.915zm-3.184-10.983l-1.885 10.452-3.532-.637c-.816-.147-1.461-.408-1.935-.781-.474-.37-.793-.819-.958-1.348-.165-.528-.191-1.101-.08-1.716.111-.616.335-1.14.673-1.57.337-.431.791-.736 1.361-.914.569-.175 1.258-.19 2.068-.044l2.857.516-.206 1.143-2.817-.508c-.558-.101-1.021-.1-1.391.002-.373.101-.663.288-.87.56-.211.274-.355.621-.43 1.039-.076.419-.063.798.037 1.14.1.341.306.628.619.86.312.235.751.404 1.316.506l2.225.401 1.682-9.329 1.266.228zm-5.766 3.808l-1.726-5.159 1.47.265 1.684 5.152-1.428-.258zm-7.3 4.405l2.653-10.284 1.246.321-2.653 10.284-1.246-.321zm-10.031-9.034c.375-1.056.89-1.9 1.544-2.533.654-.634 1.388-1.041 2.2-1.222.813-.18 1.646-.119 2.5.184.853.303 1.538.782 2.055 1.435.516.653.828 1.432.936 2.336.108.904-.026 1.884-.4 2.939-.376 1.056-.89 1.9-1.545 2.533-.654.634-1.388 1.041-2.2 1.222-.813.18-1.646.119-2.5-.184-.853-.303-1.538-.782-2.054-1.435-.517-.653-.829-1.432-.937-2.336-.108-.904.026-1.884.401-2.939zm1.173.417c-.308.866-.423 1.649-.345 2.348.075.698.304 1.288.687 1.769.38.479.872.827 1.478 1.042.606.216 1.21.257 1.81.126.598-.133 1.147-.445 1.649-.938.499-.495.902-1.175 1.21-2.042.307-.866.424-1.648.35-2.346-.079-.699-.308-1.289-.688-1.769a3.237 3.237 0 00-1.483-1.044 3.203 3.203 0 00-1.805-.124c-.6.131-1.15.444-1.649.938-.502.493-.906 1.173-1.214 2.04zm-10.088-1.678c-.175.499-.127.976.142 1.432.27.455.694.824 1.27 1.107.423.207.826.32 1.21.338.38.017.717-.051 1.012-.203.29-.154.51-.383.66-.687.124-.255.17-.503.14-.746a1.79 1.79 0 00-.254-.684 3.754 3.754 0 00-.462-.59 8.289 8.289 0 00-.493-.467l-.841-.735a9.419 9.419 0 01-.697-.676 4.27 4.27 0 01-.65-.902 2.665 2.665 0 01-.329-1.096c-.033-.397.06-.819.28-1.266a2.794 2.794 0 011.089-1.199c.47-.285 1.024-.425 1.66-.417.632.005 1.314.187 2.047.546.683.335 1.22.735 1.612 1.2.39.464.63.963.723 1.497a2.928 2.928 0 01-.194 1.609l-1.192-.584c.145-.376.17-.733.075-1.072a2.194 2.194 0 00-.555-.919 3.664 3.664 0 00-.98-.688 3.497 3.497 0 00-1.292-.367 2.272 2.272 0 00-1.13.197 1.6 1.6 0 00-.755.763c-.155.316-.193.617-.113.903.08.285.234.56.461.826.228.266.487.527.777.784l1.01.911c.64.579 1.08 1.173 1.32 1.784.24.61.202 1.236-.112 1.879-.262.534-.635.929-1.118 1.185a3.197 3.197 0 01-1.63.357c-.603-.018-1.209-.177-1.817-.475-.615-.301-1.107-.678-1.477-1.133-.372-.452-.605-.935-.699-1.451a2.48 2.48 0 01.185-1.509l1.117.548zm-6.104-.295l5.406-9.141 1.107.654-5.406 9.142-1.107-.655zm-1.702-2.423l-.652.936-6.536-4.552.652-.937 2.74 1.909 5.417-7.779 1.056.735-5.418 7.779 2.74 1.909zm-8.943-4.963l-1.11-.966 1.033-5.674-.094-.081-5.477 1.805-1.11-.967 6.993-2.19 2.874-3.301.97.845-2.874 3.301-1.205 7.228zm-2.792-14.885l.456-.334c.322-.236.685-.468 1.09-.698.402-.232.79-.442 1.163-.631.372-.188.671-.335.897-.441l.656.664c-.19.123-.438.287-.747.49-.31.203-.65.437-1.02.701-.371.26-.74.536-1.106.83l-.457.364-.932-.945zm-3.559-6.261l.816 1.073-10.814 3.323-.804-1.057 6.095-9.531.816 1.073-5.197 7.937.05.066 9.038-2.884zm-3.604 2.114l-3.289-4.326.909-.69 3.288 4.326-.908.69zM37.13 169.165l9.157-5.378.63 1.074-4.26 9.212.053.09 7.19-4.223.652 1.109-9.158 5.378-.63-1.073 4.267-9.241-.053-.09-7.208 4.233-.64-1.091zm6.715-10.675l1.29 3.013-9.765 4.178-1.346-3.147c-.405-.947-.557-1.841-.454-2.682.1-.84.436-1.595 1.01-2.266.571-.669 1.362-1.22 2.373-1.652 1.017-.435 1.97-.629 2.86-.581.885.05 1.674.337 2.364.861.688.525 1.243 1.284 1.668 2.276zm-.266 2.279l-.75-1.754c-.346-.808-.788-1.41-1.327-1.807a3.125 3.125 0 00-1.838-.618c-.686-.015-1.427.148-2.222.488-.788.337-1.411.756-1.87 1.257a3.102 3.102 0 00-.822 1.717c-.09.644.029 1.347.355 2.11l.808 1.888 7.666-3.281zm-3.699-12.862l-10.299 2.592-.906-3.601c-.18-.717-.205-1.34-.075-1.869.128-.527.37-.957.73-1.29a2.868 2.868 0 011.286-.687c.442-.112.828-.125 1.156-.04.327.082.606.229.838.442.23.209.424.451.578.726l.101-.026a2.08 2.08 0 01.093-1.034c.12-.369.342-.708.663-1.017.322-.309.754-.532 1.297-.668a2.85 2.85 0 011.482.001c.471.131.891.419 1.26.865.369.445.655 1.073.86 1.885l.936 3.721zm-1.42-.969l-.623-2.474c-.205-.814-.508-1.353-.91-1.616a1.564 1.564 0 00-1.286-.227 1.897 1.897 0 00-.898.51 1.991 1.991 0 00-.523.939c-.099.374-.092.786.022 1.235l.637 2.534 3.58-.901zm-4.667 1.175l-.582-2.313a2.356 2.356 0 00-.477-.961 1.83 1.83 0 00-.806-.567 1.706 1.706 0 00-1.013-.034 1.619 1.619 0 00-1.033.763c-.24.395-.273.935-.1 1.619l.592 2.353 3.42-.86zm-7.509-14.986l-.165-1.276 6.974-.903c.72-.094 1.384-.007 1.994.259a3.59 3.59 0 011.517 1.252c.401.572.656 1.271.763 2.097.107.826.04 1.567-.204 2.223a3.634 3.634 0 01-1.146 1.602c-.523.409-1.144.66-1.864.754l-6.973.903-.165-1.275 6.87-.89a2.765 2.765 0 001.33-.518c.368-.278.64-.64.815-1.088.172-.451.22-.97.144-1.556-.076-.587-.255-1.076-.535-1.468a2.408 2.408 0 00-1.067-.845 2.779 2.779 0 00-1.417-.162l-6.87.891zm-.514-6.038l10.611-.437.053 1.285-10.61.437-.054-1.285zm10.592-3.014l-10.616-.28.034-1.285 9.476.25.13-4.935 1.14.03-.164 6.22zm.795-11.444l-.44 3.248-10.524-1.425.46-3.392c.138-1.02.467-1.866.986-2.535a4.181 4.181 0 012.03-1.426c.834-.281 1.795-.348 2.885-.2 1.096.148 2.013.471 2.752.969a4.211 4.211 0 011.588 1.952c.32.804.408 1.741.263 2.809zm-1.398 1.821l.256-1.891c.118-.871.048-1.614-.21-2.232a3.131 3.131 0 00-1.26-1.474c-.583-.365-1.302-.605-2.158-.721-.85-.115-1.6-.075-2.251.119a3.1 3.1 0 00-1.587 1.052c-.407.506-.666 1.171-.777 1.993l-.276 2.035 8.263 1.119zm-3.786-16.525a1.628 1.628 0 00-1.372.433c-.39.358-.664.849-.822 1.472-.116.456-.143.873-.082 1.252.062.376.197.692.407.949.21.253.48.421.808.504a1.3 1.3 0 00.759-.016c.228-.085.434-.215.617-.39.18-.175.341-.366.483-.573.138-.207.256-.4.355-.579l.546-.974c.139-.25.311-.524.518-.82.209-.301.458-.575.749-.822a2.667 2.667 0 011.005-.548c.382-.113.814-.11 1.297.013a2.795 2.795 0 011.397.82c.376.401.626.914.75 1.538.124.62.087 1.325-.114 2.116-.187.737-.467 1.345-.842 1.825-.374.476-.813.814-1.316 1.014a2.925 2.925 0 01-1.614.142l.326-1.287c.397.065.752.016 1.064-.147a2.2 2.2 0 00.785-.732c.21-.325.368-.692.471-1.1.12-.476.152-.923.094-1.341a2.272 2.272 0 00-.426-1.065 1.598 1.598 0 00-.9-.582c-.343-.086-.645-.061-.908.076-.263.136-.5.343-.714.621a8.225 8.225 0 00-.608.921l-.683 1.175c-.434.746-.926 1.299-1.474 1.66-.548.36-1.168.452-1.862.277-.576-.146-1.04-.43-1.39-.85a3.202 3.202 0 01-.684-1.521 4.414 4.414 0 01.09-1.877c.168-.663.437-1.223.805-1.678.366-.457.791-.784 1.276-.983a2.48 2.48 0 011.515-.13l-.306 1.207zm10.265-5.66l-.532 1.24-8.22-7.774.524-1.22 11.297.607-.532 1.24-9.467-.612-.032.076 6.962 6.444zm-3.615-2.093l2.144-4.994 1.048.45-2.144 4.994-1.048-.45zm5.793-19.267a1.628 1.628 0 00-1.439-.013c-.481.22-.894.601-1.237 1.145-.25.398-.406.786-.465 1.166a1.97 1.97 0 00.093 1.027 1.5 1.5 0 00.613.73c.24.151.482.224.726.22.243-.01.48-.07.708-.18.225-.111.437-.243.636-.396.195-.154.368-.301.517-.44l.82-.757c.21-.196.459-.402.748-.62a4.26 4.26 0 01.965-.55 2.67 2.67 0 011.126-.21c.398.01.808.148 1.229.414.485.306.844.71 1.075 1.211.233.499.312 1.064.237 1.695-.073.628-.328 1.287-.763 1.977-.406.643-.86 1.135-1.365 1.475-.503.337-1.025.522-1.566.557a2.93 2.93 0 01-1.579-.364l.709-1.123c.357.185.71.248 1.057.189a2.19 2.19 0 00.973-.453c.3-.244.564-.544.789-.9.262-.416.43-.831.503-1.246a2.27 2.27 0 00-.075-1.145 1.597 1.597 0 00-.677-.832c-.298-.188-.593-.258-.885-.209a2.17 2.17 0 00-.871.37 8.184 8.184 0 00-.864.688l-1.012.906c-.645.575-1.283.948-1.916 1.122-.632.173-1.251.069-1.857-.313-.502-.317-.855-.73-1.058-1.238a3.203 3.203 0 01-.18-1.658c.083-.598.305-1.183.666-1.757.365-.579.794-1.028 1.286-1.347.488-.321.994-.5 1.517-.539a2.48 2.48 0 011.48.345l-.664 1.053z" fill="#CB5930"/></svg>